<?xml version="1.0" encoding="UTF-8"?>
<svg width="96px" height="96px" viewBox="0 0 96 96" version="1.1" xmlns="http://www.w3.org/2000/svg" xmlns:xlink="http://www.w3.org/1999/xlink">
    <!-- Generator: Sketch 52.5 (67469) - http://www.bohemiancoding.com/sketch -->
    <title>buy_airtime_featured_icon</title>
    <desc>Created with Sketch.</desc>
    <g id="Page-1" stroke="none" stroke-width="1" fill="none" fill-rule="evenodd">
        <g id="Remita-Landing-Page---First-Icon-Set" transform="translate(-990.000000, -325.000000)">
            <g id="Group-69" transform="translate(642.000000, 325.000000)">
                <g id="Group-65" transform="translate(330.000000, 1.000000)">
                    <g id="Group">
                        <g id="buy_airtime_featured_icon" transform="translate(19.000000, 0.000000)">
                            <path d="M46.9973271,8.41989243e-15 C21.0841121,8.41989243e-15 1.02788398e-12,21.0845118 1.02788398e-12,47 C1.02788398e-12,72.9154882 21.0841121,94 46.9973271,94 C72.9158879,94 94,72.9154882 94,47 C94,21.0845118 72.9158879,8.41989243e-15 46.9973271,8.41989243e-15" id="Fill-3" stroke="#F16521" stroke-width="2"></path>
                            <g id="XMLID_1250_" transform="translate(26.000000, 24.000000)" fill="#F16521" fill-rule="nonzero">
                                <path d="M33.0713321,30.6029779 L33.0713321,7.74369745 L9.61405941,7.74369745 L9.61405941,13.6819622 L9.91949595,13.6819622 C11.9909226,13.6819622 13.6763231,15.6587901 13.6763231,18.0888163 C13.6763231,19.4615561 13.13841,20.6896711 12.2969407,21.4984912 C13.1010879,22.3073409 13.6113861,23.5073133 13.6113861,24.8445204 C13.6113861,26.1868734 13.0971528,27.3909336 12.2876439,28.1998702 C13.0971528,29.0088069 13.6113861,30.212867 13.6113861,31.5552201 C13.6113861,32.9236126 13.0770087,34.1482948 12.2402027,34.9571981 C12.2518981,34.9710604 12.2635009,34.9850304 12.2750099,34.9991066 L28.0179316,34.9991066 C28.0583199,32.5675205 29.8771895,30.6029779 32.1070072,30.6029779 L33.0713321,30.6029779 Z M35.124991,30.6372698 C37.1416981,30.9117545 38.7077363,32.800312 38.7077363,35.0817549 L38.7077363,35.2283345 C38.7077363,37.5098571 37.1415886,39.3984669 35.1247795,39.6728484 L35.1247795,46.6104468 L7.56018902,46.6104468 L7.56018902,41.2557669 L6.42622412,41.2557669 C4.68773177,41.2557669 3.27350135,39.5967035 3.27350135,37.5574163 C3.27350135,36.9835777 3.385482,36.4398456 3.58515774,35.954714 C1.6149648,35.8215865 0.0467461746,33.8992475 0.0467461746,31.5552201 C0.0467461746,30.2128431 0.560997871,29.0087639 1.37056745,28.1998269 C0.561025711,27.3908906 0.0467461746,26.1868495 0.0467461746,24.8445204 C0.0467461746,23.1448611 0.871169813,21.6669143 2.07561622,20.9320333 C1.52152914,20.1640605 1.18705671,19.1714132 1.18705671,18.0888163 C1.18705671,15.6587901 2.87224572,13.6819622 4.94367237,13.6819622 L7.56018902,13.6819622 L7.56018902,0.180017517 L35.124991,0.180017517 L35.124991,30.6372698 Z M33.0711206,39.7071115 L32.1070072,39.7071115 C30.4407304,39.7071115 29.0039324,38.6100852 28.3672651,37.0409175 L13.1223805,37.0409175 C13.1425761,37.2097349 13.1530198,37.3821717 13.1530198,37.5574163 C13.1530198,39.5967035 11.7387894,41.2557669 10.000297,41.2557669 L9.61405941,41.2557669 L9.61405941,44.5684256 L33.0711206,44.5684256 L33.0711206,39.7071115 Z M11.5887444,37.0409175 L11.4005671,37.0409175 L11.4005671,36.5386782 C11.2424138,36.2406792 11.0170858,35.9965834 10.7496288,35.8357533 C10.4627509,35.9182933 10.1630377,35.9620742 9.85477048,35.9620742 L5.49614139,35.9620742 C5.06280611,36.3107573 4.77805131,36.895812 4.77805131,37.5574163 C4.77805131,38.6234313 5.51731773,39.4907119 6.42622412,39.4907119 L10.000297,39.4907119 C10.9092034,39.4907119 11.6484698,38.6234313 11.6484698,37.5574163 C11.6484698,37.3786068 11.6276643,37.2053889 11.5887444,37.0409175 Z M9.85477048,33.8590658 C10.9377588,33.8590658 11.8187444,32.8256475 11.8187444,31.5552201 C11.8187444,30.2847927 10.9377588,29.2513744 9.85477048,29.2513744 L3.80357336,29.2513744 C2.72058506,29.2513744 1.83959946,30.2847927 1.83959946,31.5552201 C1.83959946,32.8256475 2.72058506,33.8590658 3.80357336,33.8590658 L6.42622412,33.8590658 L9.85477048,33.8590658 Z M9.85477048,27.1483661 C10.9377588,27.1483661 11.8187444,26.1149477 11.8187444,24.8445204 C11.8187444,23.574093 10.9377588,22.5406747 9.85477048,22.5406747 L3.80357336,22.5406747 C2.72058506,22.5406747 1.83959946,23.574093 1.83959946,24.8445204 C1.83959946,26.1149477 2.72058506,27.1483661 3.80357336,27.1483661 L9.85477048,27.1483661 Z M33.0713321,5.70188661 L33.0713321,2.22203865 L9.61405941,2.22203865 L9.61405941,5.70188661 L33.0713321,5.70188661 Z M21.3424842,41.9579613 C20.5272817,41.9579613 19.8639514,41.2986682 19.8639514,40.4879585 C19.8639514,39.6774591 20.5272817,39.0181659 21.3424842,39.0181659 C22.1576868,39.0181659 22.8210171,39.6774591 22.8210171,40.4879585 C22.8212286,41.2986682 22.1576868,41.9579613 21.3424842,41.9579613 Z M4.94346085,15.7849706 C3.86047255,15.7849706 2.97948695,16.8183889 2.97948695,18.0888163 C2.97948695,19.3592436 3.86047255,20.3926619 4.94346085,20.3926619 L9.91928443,20.3926619 C11.0022727,20.3926619 11.8832583,19.3592436 11.8832583,18.0888163 C11.8832583,16.8183889 11.0022727,15.7849706 9.91928443,15.7849706 L4.94346085,15.7849706 Z M32.1070072,32.7059863 C30.9110666,32.7059863 29.9376463,33.7715806 29.9376463,35.0817549 L29.9376463,35.2283345 C29.9376463,36.5382985 30.9110666,37.6041031 32.1070072,37.6041031 L34.6175518,37.6041031 C35.8139154,37.6041031 36.7873357,36.5385088 36.7873357,35.2283345 L36.7873357,35.0817549 C36.7873357,33.7717909 35.8139154,32.7059863 34.6175518,32.7059863 L32.1070072,32.7059863 Z M25.6602655,20.6065379 L25.6602655,23.4630542 L26.9293924,23.4630542 L26.9293924,25.1109715 L25.6602655,25.1109715 L25.6602655,27.5014612 L23.2491359,27.5014612 L22.1360854,25.1109715 L19.4186994,25.1109715 L19.4186994,27.5014612 L17.7235689,27.5014612 L17.7235689,25.1109715 L15.7555761,25.1109715 L15.7555761,23.4630542 L17.7235689,23.4630542 L17.7235689,20.6065379 L15.7555761,20.6065379 L15.7555761,18.9586205 L17.7235689,18.9586205 L17.7235689,16.4512036 L20.1160846,16.4512036 L21.2934382,18.9586205 L23.9530783,18.9586205 L23.9530783,16.4514139 L25.6602655,16.4514139 L25.6602655,18.9586205 L26.9293924,18.9586205 L26.9293924,20.6065379 L25.6602655,20.6065379 Z M23.9530783,20.6065379 L22.0672151,20.6065379 L23.4084877,23.4630542 L23.9948957,23.4630542 C23.9668869,22.6772369 23.9530783,22.0834279 23.9530783,21.6820164 L23.9530783,20.6065379 Z M20.0387484,20.6065379 L19.3722443,20.6065379 C19.4031614,21.3394602 19.4186994,21.9043282 19.4186994,22.3013523 L19.4186994,23.4630542 L21.3687885,23.4630542 L20.0387484,20.6065379 Z" id="Combined-Shape"></path>
                            </g>
                        </g>
                    </g>
                </g>
            </g>
        </g>
    </g>
</svg>
