<?xml version="1.0" encoding="UTF-8"?>
<svg width="96px" height="96px" viewBox="0 0 96 96" version="1.1" xmlns="http://www.w3.org/2000/svg" xmlns:xlink="http://www.w3.org/1999/xlink">
    <!-- Generator: Sketch 48.1 (47250) - http://www.bohemiancoding.com/sketch -->
    <title>electricity_light_up_icon</title>
    <desc>Created with Sketch.</desc>
    <defs></defs>
    <g id="Page-1" stroke="none" stroke-width="1" fill="none" fill-rule="evenodd">
        <g id="electricity_light_up_icon" transform="translate(1.000000, 1.000000)">
            <g id="electricity_icon_step_3">
                <g id="Group" transform="translate(26.000000, 18.000000)" fill="#F16521">
                    <g>
                        <path d="M39.669,18.398 C38.687,9.058 31.215,1.586 21.972,0.604 C21.384,0.604 20.793,0.505 20.104,0.505 C19.416,0.505 18.826,0.604 18.236,0.604 C8.995,1.685 1.523,9.157 0.54,18.398 C-0.148,24.69 2.113,30.884 6.636,35.21 C9.094,37.57 10.667,40.323 11.257,42.978 L11.257,54.579 C11.257,55.169 11.651,55.563 12.241,55.563 L13.716,55.563 L15.486,57.922 C16.272,58.905 17.353,59.495 18.632,59.495 L21.582,59.495 C22.86,59.495 24.04,58.905 24.728,57.922 L26.498,55.563 L27.973,55.563 C28.563,55.563 28.956,55.17 28.956,54.581 L28.956,42.978 C29.446,40.324 31.118,37.571 33.576,35.21 C38.097,30.787 40.358,24.691 39.669,18.398 Z M26.986,45.73 L24.037,45.73 C23.447,45.73 23.054,46.124 23.054,46.712 C23.054,47.303 23.448,47.696 24.037,47.696 L26.986,47.696 L26.986,49.661 L21.086,49.661 C20.498,49.661 20.104,50.056 20.104,50.645 C20.104,51.234 20.499,51.627 21.086,51.627 L26.986,51.627 L26.986,53.594 L26.004,53.594 L14.205,53.594 L13.221,53.594 L13.221,51.627 L16.17,51.627 C16.76,51.627 17.154,51.234 17.154,50.645 C17.154,50.056 16.76,49.662 16.17,49.662 L13.221,49.662 L13.221,47.696 L19.121,47.696 C19.711,47.696 20.103,47.302 20.103,46.712 C20.103,46.123 19.71,45.73 19.121,45.73 L13.221,45.73 L13.221,43.764 L26.986,43.764 L26.986,45.73 Z M23.152,56.742 C22.758,57.233 22.169,57.529 21.579,57.529 L18.629,57.529 C18.039,57.529 17.449,57.233 17.056,56.742 L16.17,55.562 L24.037,55.562 L23.152,56.742 Z M32.197,33.736 C29.74,36.194 27.969,38.946 27.183,41.798 L13.025,41.798 C12.239,38.946 10.468,36.194 8.011,33.736 C3.882,29.804 1.916,24.298 2.506,18.595 C3.488,10.238 10.175,3.553 18.53,2.569 C19.022,2.569 19.514,2.471 20.103,2.471 C20.693,2.471 21.185,2.569 21.676,2.569 C30.034,3.552 36.817,10.238 37.701,18.595 C38.293,24.298 36.326,29.803 32.197,33.736 Z" id="Shape" fill-rule="nonzero"></path>
                        <rect id="Rectangle" x="19" y="8" width="1.5" height="4.5"></rect>
                        <rect id="Rectangle-Copy" transform="translate(26.750000, 12.250000) rotate(30.000000) translate(-26.750000, -12.250000) " x="26" y="10" width="1.5" height="4.5"></rect>
                        <rect id="Rectangle-Copy-2" transform="translate(12.774519, 12.323557) scale(-1, 1) rotate(30.000000) translate(-12.774519, -12.323557) " x="12.0245191" y="10.0735572" width="1.5" height="4.5"></rect>
                        <rect id="Rectangle-Copy-3" transform="translate(8.323557, 18.774519) scale(-1, 1) rotate(60.000000) translate(-8.323557, -18.774519) " x="7.57355716" y="16.5245191" width="1.5" height="4.5"></rect>
                        <rect id="Rectangle-Copy-4" transform="translate(31.323557, 18.774519) rotate(60.000000) translate(-31.323557, -18.774519) " x="30.5735572" y="16.5245191" width="1.5" height="4.5"></rect>
                    </g>
                </g>
                <g id="Group" transform="translate(39.000000, 32.000000)" fill="#F16521" fill-rule="nonzero">
                    <path d="M6.104,13.289 L6.104,26.625 L8.104,26.625 L8.104,13.289 C7.778,13.34 7.446,13.375 7.104,13.375 C6.763,13.375 6.431,13.341 6.104,13.289 Z" id="Shape"></path>
                    <path d="M13.542,6.938 C13.542,3.388 10.654,0.5 7.104,0.5 C3.555,0.5 0.667,3.388 0.667,6.938 C0.667,10.147 3.029,12.807 6.105,13.29 L6.105,11.252 C4.14,10.796 2.667,9.04 2.667,6.938 C2.667,4.491 4.658,2.5 7.104,2.5 C9.551,2.5 11.542,4.491 11.542,6.938 C11.542,9.04 10.069,10.796 8.104,11.252 L8.104,13.29 C11.18,12.806 13.542,10.146 13.542,6.938 Z" id="Shape"></path>
                    <path d="M7.104,11.375 C6.759,11.375 6.427,11.326 6.104,11.251 L6.104,13.289 C6.431,13.341 6.763,13.375 7.104,13.375 C7.446,13.375 7.778,13.34 8.104,13.289 L8.104,11.251 C7.781,11.326 7.449,11.375 7.104,11.375 Z" id="Shape"></path>
                </g>
                <path d="M46.998,0 C21.082,0 0,21.084 0,47 C0,72.916 21.082,94 46.998,94 C72.914,94 94,72.916 94,47 C94,21.084 72.914,0 46.998,0 Z" id="Shape" stroke="#F16521" stroke-width="2"></path>
            </g>
            <path d="M47.1000061,43.2760015 L47.1000061,37.6500015 L45.1000061,37.6500015 L45.1000061,43.2760015 C45.4230061,43.3510015 45.7550061,43.4000015 46.1000061,43.4000015 C46.4450061,43.4000015 46.7770061,43.3510015 47.1000061,43.2760015 Z" id="Shape" fill="#F16521" fill-rule="nonzero"></path>
        </g>
    </g>
</svg>