<?xml version="1.0" encoding="UTF-8"?>
<svg width="77px" height="77px" viewBox="0 0 77 77" version="1.1" xmlns="http://www.w3.org/2000/svg" xmlns:xlink="http://www.w3.org/1999/xlink">
    <!-- Generator: Sketch 43.1 (39012) - http://www.bohemiancoding.com/sketch -->
    <title>get_paid_faster</title>
    <desc>Created with Sketch.</desc>
    <defs></defs>
    <g id="Page-1" stroke="none" stroke-width="1" fill="none" fill-rule="evenodd">
        <g id="Remita_Web" transform="translate(-245.000000, -1258.000000)">
            <g id="get_paid_faster" transform="translate(246.000000, 1259.000000)">
                <circle id="Oval" stroke="#F16521" stroke-width="2" cx="37.5" cy="37.5" r="37.5"></circle>
                <g id="Receive-money" transform="translate(26.000000, 10.000000)" fill-rule="nonzero" fill="#F16521">
                    <path d="M11.0084118,0.632890411 C11.4548824,0.632890411 11.8172353,0.992794521 11.8172353,1.43768493 L11.8172353,15.7752603 L14.9205294,11.2091781 C15.1709412,10.8409041 15.6730588,10.7443288 16.0431765,10.9934932 C16.4132941,11.2426575 16.511,11.7429178 16.2605882,12.1111918 L11.6787647,18.8534384 C11.4794706,19.1463836 11.1119412,19.2757945 10.7715882,19.172137 C10.4318824,19.0684795 10.1995882,18.7562192 10.1995882,18.4027534 L10.1995882,1.43768493 C10.1995882,0.992794521 10.5612941,0.632890411 11.0084118,0.632890411 Z" id="Shape"></path>
                    <path d="M6.42529412,11.9425068 L11.0084118,18.4021096" id="Shape"></path>
                    <path d="M6.42464706,11.1377123 C6.67894118,11.1377123 6.92870588,11.2561781 7.08594118,11.4783014 L11.6690588,17.9372603 C11.9265882,18.3003836 11.8398824,18.8025753 11.4749412,19.0588219 C11.11,19.3144247 10.6046471,19.2287945 10.3477647,18.8656712 L5.76464706,12.4067123 C5.50711765,12.043589 5.59317647,11.5407534 5.95876471,11.2851507 C6.10047059,11.186 6.26352941,11.1377123 6.42464706,11.1377123 Z" id="Shape"></path>
                    <polyline id="XMLID_77_" points="17.9610588 10.1623014 21.8634706 10.1623014 21.8634706 46.7624247 0.152058824 46.7624247 0.152058824 10.1623014 4.01305882 10.1623014 4.01305882 11.7718904 1.76970588 11.7718904 1.76970588 45.1528356 20.2458235 45.1528356 20.2458235 11.7718904 17.9610588 11.7718904"></polyline>
                    <polygon id="XMLID_80_" points="17.9610588 14.5146301 21.0546471 14.5146301 21.0546471 16.1242192 16.8856471 16.1242192"></polygon>
                    <polygon id="XMLID_81_" points="4.92929412 16.1242192 0.960882353 16.1242192 0.960882353 14.5146301 4.01305882 14.5146301"></polygon>
                    <rect id="XMLID_83_" x="0.960882353" y="36.9838493" width="20.0937647" height="1.60958904"></rect>
                    <ellipse id="XMLID_84_" cx="11.0077647" cy="41.9368767" rx="1.16470588" ry="1.15890411"></ellipse>
                    <path d="M14.5271176,31.4713288 L12.5050588,31.4713288 L9.24258824,24.4573836 L9.19664706,24.4573836 C9.262,25.6961233 9.29435294,26.5794658 9.29435294,27.1080548 L9.29435294,31.4706849 L7.87341176,31.4706849 L7.87341176,22.1994521 L9.87929412,22.1994521 L13.1372353,29.1432192 L13.1728235,29.1432192 C13.1210588,27.9386027 13.0958235,27.0874521 13.0958235,26.5878356 L13.0958235,22.1994521 L14.5277647,22.1994521 L14.5277647,31.4713288 L14.5271176,31.4713288 Z" id="XMLID_88_"></path>
                    <rect id="XMLID_10_" x="6.22341176" y="28.0828219" width="9.36811765" height="1.38231507"></rect>
                    <rect id="XMLID_9_" x="6.22341176" y="24.3035068" width="9.36811765" height="1.38231507"></rect>
                </g>
            </g>
        </g>
    </g>
</svg>