<?xml version="1.0" encoding="UTF-8"?>
<svg width="19px" height="15px" viewBox="0 0 19 15" version="1.1" xmlns="http://www.w3.org/2000/svg" xmlns:xlink="http://www.w3.org/1999/xlink">
    <!-- Generator: Sketch 51.1 (57501) - http://www.bohemiancoding.com/sketch -->
    <title>integrate_icon</title>
    <desc>Created with Sketch.</desc>
    <defs></defs>
    <g id="Page-1" stroke="none" stroke-width="1" fill="none" fill-rule="evenodd">
        <g id="Remita---Integrate-CTA" transform="translate(-801.000000, -42.000000)" fill="#FFFFFF" fill-rule="nonzero">
            <g id="Group-36">
                <g id="iStock-598157396">
                    <g id="Group-5" transform="translate(802.000000, 40.000000)">
                        <g id="Group-4">
                            <g id="integrate_icon" transform="translate(0.000000, 3.000000)">
                                <path d="M17.6797435,12.5175221 L17.6797435,1.29244991 C17.6797435,0.590882896 17.0766967,0.0221368232 16.3328186,0.0221368232 L1.34692491,0.0221368232 C0.603046808,0.0221368232 0,0.590882896 0,1.29244991 L0,12.5209278 C0,13.2224948 0.603046808,13.7912409 1.34692491,13.7912409 L16.3328186,13.7912409 C17.0766967,13.7912409 17.6797435,13.2190891 17.6797435,12.5175221 Z M1.34692491,0.638562208 L16.3328186,0.638562208 C16.7155909,0.638562208 17.0261419,0.931449407 17.0261419,1.29244991 L17.0261419,2.80797088 L0.65360163,2.80797088 L0.65360163,1.29244991 C0.65360163,0.931449407 0.964152681,0.638562208 1.34692491,0.638562208 Z M0.65360163,12.5175221 L0.65360163,3.42439627 L17.0261419,3.42439627 L17.0261419,12.5175221 C17.0261419,12.8785226 16.7155909,13.1714098 16.3328186,13.1714098 L1.34692491,13.1714098 C0.964152681,13.1714098 0.65360163,12.8785226 0.65360163,12.5175221 Z" id="Shape" stroke="#FFFFFF" stroke-width="0.1"></path>
                                <path d="M8.83987177,8.12421412 C7.13545205,8.12421412 5.75241656,9.43198952 5.75241656,11.0360578 C5.75241656,11.206341 5.90046997,11.3459733 6.0810229,11.3459733 C6.26157584,11.3459733 6.40962925,11.206341 6.40962925,11.0360578 C6.40962925,9.76915037 7.50016898,8.7406395 8.84348283,8.7406395 C10.1867967,8.7406395 11.2773364,9.76915037 11.2773364,11.0360578 C11.2773364,11.206341 11.4253898,11.3459733 11.6059428,11.3459733 C11.7864957,11.3459733 11.9345491,11.206341 11.9345491,11.0360578 C11.927327,9.42858385 10.5442915,8.12421412 8.83987177,8.12421412 Z" id="Shape"></path>
                                <path d="M14.3792359,9.85769766 L13.7545227,9.85769766 C13.6353578,9.41155553 13.4475827,8.98925306 13.1984197,8.5941959 L13.6389688,8.17870476 C13.7761891,8.04928949 13.8484102,7.87900623 13.8484102,7.69850598 C13.8484102,7.51800573 13.772578,7.34772247 13.6389688,7.2183072 L12.8842576,6.50652319 C12.602595,6.24088131 12.1476016,6.24088131 11.86955,6.50652319 L11.4290009,6.92201433 C11.0101181,6.68702344 10.5623468,6.51333452 10.0892981,6.39754191 L10.0892981,5.81517317 C10.0892981,5.44055001 9.76791387,5.13744582 9.37069741,5.13744582 L8.30543508,5.13744582 C7.90821862,5.13744582 7.58683439,5.44055001 7.58683439,5.81517317 L7.58683439,6.40435324 C7.1137857,6.51674019 6.66601442,6.69383477 6.2471316,6.92882566 L5.80658244,6.51333452 C5.66936221,6.38391925 5.48880927,6.31580594 5.29742316,6.31580594 C5.10603704,6.31580594 4.92548411,6.38732491 4.78826388,6.51333452 L4.0335526,7.22511853 C3.89633237,7.3545338 3.8241112,7.52481706 3.8241112,7.70531731 C3.8241112,7.88581756 3.89994343,8.05610082 4.0335526,8.18551609 L4.47410177,8.60100723 C4.22493871,8.99606439 4.04077472,9.41836686 3.91799872,9.86450899 L3.29328556,9.86450899 C2.8960691,9.86450899 2.57468487,10.1676132 2.57468487,10.5422363 L2.57468487,11.5469076 C2.57468487,11.9215307 2.8960691,12.2246349 3.29328556,12.2246349 L4.17799495,12.2246349 C4.35854789,12.2246349 4.5066013,12.0850026 4.5066013,11.9147194 C4.5066013,11.7444361 4.35854789,11.6048039 4.17799495,11.6048039 L3.29328556,11.6048039 C3.25717497,11.6048039 3.22828651,11.5775585 3.22828651,11.5435019 L3.22828651,10.5388307 C3.22828651,10.504774 3.25717497,10.4775287 3.29328556,10.4775287 L4.17799495,10.4775287 C4.33327048,10.4775287 4.47049071,10.3719531 4.49937918,10.2289152 C4.611322,9.69082007 4.83520764,9.18337597 5.16020293,8.72701684 C5.24686834,8.6044129 5.22881304,8.44094097 5.12048128,8.33536535 L4.49215706,7.74277963 C4.47771283,7.72915697 4.47410177,7.71212864 4.47410177,7.70191164 C4.47410177,7.69169465 4.47771283,7.67466632 4.49215706,7.66104366 L5.24686834,6.94925966 C5.26131257,6.93563699 5.27936786,6.93223133 5.29020104,6.93223133 C5.30103422,6.93223133 5.31908951,6.93563699 5.3371448,6.94925966 L5.96546902,7.54184538 C6.07741184,7.647421 6.25074266,7.66104366 6.38074078,7.5793077 C6.86462265,7.27279784 7.4026704,7.06505227 7.97321768,6.95607099 C8.12488214,6.92882566 8.23682496,6.79941039 8.23682496,6.65296679 L8.23682496,5.81517317 C8.23682496,5.78111652 8.26571343,5.7538712 8.30182402,5.7538712 L9.36708635,5.7538712 C9.40319693,5.7538712 9.4320854,5.78111652 9.4320854,5.81517317 L9.4320854,6.64956113 C9.4320854,6.79600473 9.54402822,6.92542 9.69569269,6.95266532 C10.26624,7.05824094 10.8042877,7.26939218 11.2881696,7.57590204 C11.4181677,7.657638 11.5914985,7.64060967 11.7034413,7.53843972 L12.3317656,6.94585399 C12.357043,6.92201433 12.3967646,6.92201433 12.422042,6.94585399 L13.1767533,7.657638 C13.1911975,7.67126066 13.1948086,7.68828898 13.1948086,7.69850598 C13.1948086,7.70872297 13.1911975,7.7257513 13.1767533,7.74277963 L12.5484291,8.33536535 C12.4364863,8.44094097 12.422042,8.6044129 12.5087074,8.72701684 C12.8337027,9.18337597 13.0539773,9.69082007 13.1695312,10.2289152 C13.1984197,10.3719531 13.3356399,10.4775287 13.4909154,10.4775287 L14.3756248,10.4775287 C14.4117354,10.4775287 14.4406239,10.504774 14.4406239,10.5388307 L14.4406239,11.5435019 C14.4406239,11.5775585 14.4117354,11.6048039 14.3756248,11.6048039 L13.4909154,11.6048039 C13.3103625,11.6048039 13.1623091,11.7444361 13.1623091,11.9147194 C13.1623091,12.0850026 13.3103625,12.2246349 13.4909154,12.2246349 L14.3756248,12.2246349 C14.7728413,12.2246349 15.0942255,11.9215307 15.0942255,11.5469076 L15.0942255,10.5422363 C15.0942255,10.1608019 14.7728413,9.85769766 14.3792359,9.85769766 Z" id="Shape"></path>
                                <path d="M2.95384604,2.01104525 C3.04051145,2.01104525 3.1235658,1.9769886 3.1849538,1.91909229 C3.2463418,1.86119598 3.28245239,1.78286568 3.28245239,1.70112972 C3.28245239,1.61939376 3.2463418,1.54106346 3.1849538,1.48316716 C3.1235658,1.42527085 3.04051145,1.3912142 2.95384604,1.3912142 C2.86718063,1.3912142 2.78412628,1.42527085 2.72273828,1.48316716 C2.66135028,1.54106346 2.6252397,1.61939376 2.6252397,1.70112972 C2.6252397,1.78286568 2.66135028,1.86119598 2.72273828,1.91909229 C2.78412628,1.98039426 2.86718063,2.01104525 2.95384604,2.01104525 Z" id="Shape"></path>
                                <path d="M4.10938484,2.01104525 C4.19605024,2.01104525 4.2791046,1.9769886 4.34049259,1.91909229 C4.40188059,1.86119598 4.43799118,1.78286568 4.43799118,1.70112972 C4.43799118,1.61939376 4.40188059,1.54106346 4.34049259,1.48316716 C4.2791046,1.42527085 4.19605024,1.3912142 4.10938484,1.3912142 C4.02271943,1.3912142 3.93966507,1.42527085 3.87827708,1.48316716 C3.81688908,1.54106346 3.78077849,1.61939376 3.78077849,1.70112972 C3.78077849,1.78286568 3.81688908,1.86119598 3.87827708,1.91909229 C3.93966507,1.98039426 4.02271943,2.01104525 4.10938484,2.01104525 Z" id="Shape"></path>
                                <path d="M1.79830725,2.01104525 C1.88497266,2.01104525 1.96802701,1.9769886 2.02941501,1.91909229 C2.090803,1.86119598 2.12691359,1.78286568 2.12691359,1.70112972 C2.12691359,1.61939376 2.090803,1.54106346 2.02941501,1.48316716 C1.96802701,1.42527085 1.88497266,1.3912142 1.79830725,1.3912142 C1.71164184,1.3912142 1.62858749,1.42527085 1.56719949,1.48316716 C1.50581149,1.54106346 1.4697009,1.61939376 1.4697009,1.70112972 C1.4697009,1.78286568 1.50581149,1.86119598 1.56719949,1.91909229 C1.62858749,1.98039426 1.71164184,2.01104525 1.79830725,2.01104525 Z" id="Shape"></path>
                            </g>
                        </g>
                    </g>
                </g>
            </g>
        </g>
    </g>
</svg>