<?xml version="1.0" encoding="UTF-8"?>
<svg width="96px" height="96px" viewBox="0 0 96 96" version="1.1" xmlns="http://www.w3.org/2000/svg" xmlns:xlink="http://www.w3.org/1999/xlink">
    <!-- Generator: Sketch 43.1 (39012) - http://www.bohemiancoding.com/sketch -->
    <title>pay_state_govt_mobile</title>
    <desc>Created with Sketch.</desc>
    <defs></defs>
    <g id="Page-1" stroke="none" stroke-width="1" fill="none" fill-rule="evenodd">
        <g id="remita_sprite_sheet" transform="translate(-783.000000, -399.000000)">
            <g id="pay_state_govt_mobile" transform="translate(784.000000, 400.000000)">
                <g id="Pay-state-government-icon-inactive" stroke="#888078" stroke-width="2">
                    <path d="M46.997448,94 C21.0819895,94 0,72.9159276 0,47 C0,21.0840724 21.0819895,0 46.997448,0 C72.9146079,0 94,21.0840724 94,47 C94,72.9159276 72.9146079,94 46.997448,94 L46.997448,94 Z" id="Fill-1"></path>
                </g>
                <g id="flat" transform="translate(22.560000, 27.573333)" fill="#888078">
                    <path d="M47.1775728,10.6411417 L36.9977791,10.6411417 L36.9977791,1.28649176 C36.9977791,0.631381526 36.465953,0.100056076 35.8088981,0.100056076 L12.5575557,0.100056076 C11.9005008,0.100056076 11.3686747,0.631381526 11.3686747,1.28649176 L11.3686747,10.6411417 L1.18888102,10.6411417 C0.532618695,10.6411417 0,11.1726649 0,11.8275774 L0,15.6611488 C0,16.3160613 0.532618695,16.8475845 1.18888102,16.8475845 L1.8035325,16.8475845 L1.8035325,38.3618161 C1.8035325,39.0167286 2.33595305,39.5482518 2.99241352,39.5482518 L45.3740403,39.5482518 C46.0305008,39.5482518 46.5629213,39.0167286 46.5629213,38.3618161 L46.5629213,16.8475845 L47.1775728,16.8475845 C47.8338351,16.8475845 48.3664538,16.3160613 48.3664538,15.6611488 L48.3664538,11.8275774 C48.3664538,11.1726649 47.8338351,10.6411417 47.1775728,10.6411417 L47.1775728,10.6411417 Z M13.7464368,10.6411417 L34.6200171,10.6411417 L34.6200171,2.47292745 L13.7464368,2.47292745 L13.7464368,10.6411417 Z M18.1288503,37.1753804 L22.9943459,37.1753804 L22.9943459,33.50178 L18.1288503,33.50178 L18.1288503,37.1753804 Z M25.3721079,37.1753804 L30.2381979,37.1753804 L30.2381979,33.50178 L25.3721079,33.50178 L25.3721079,37.1753804 Z M44.1851593,37.1753804 L32.61596,37.1753804 L15.7502957,37.1753804 L4.18129454,37.1753804 L4.18129454,16.8475845 L44.1851593,16.8475845 L44.1851593,37.1753804 Z M2.37776203,14.4747131 L45.9886918,14.4747131 L45.9886918,13.0140131 L2.37776203,13.0140131 L2.37776203,14.4747131 Z" id="Fill-1"></path>
                    <path d="M18.6351155,4.58003724 L17.0499408,4.58003724 C16.6126307,4.58003724 16.2573535,4.93379281 16.2573535,5.37099436 L16.2573535,7.74386574 C16.2573535,8.18027633 16.6126307,8.53482287 17.0499408,8.53482287 L18.6351155,8.53482287 C19.0732181,8.53482287 19.4277028,8.18027633 19.4277028,7.74386574 L19.4277028,5.37099436 C19.4277028,4.93379281 19.0732181,4.58003724 18.6351155,4.58003724 L18.6351155,4.58003724 Z" id="Fill-2"></path>
                    <path d="M24.9758142,4.58003724 L23.3906396,4.58003724 C22.9533295,4.58003724 22.5980522,4.93379281 22.5980522,5.37099436 L22.5980522,7.74386574 C22.5980522,8.18027633 22.9533295,8.53482287 23.3906396,8.53482287 L24.9758142,8.53482287 C25.4139169,8.53482287 25.7684016,8.18027633 25.7684016,7.74386574 L25.7684016,5.37099436 C25.7684016,4.93379281 25.4139169,4.58003724 24.9758142,4.58003724 L24.9758142,4.58003724 Z" id="Fill-3"></path>
                    <path d="M31.316513,4.58003724 L29.7313383,4.58003724 C29.2940282,4.58003724 28.938751,4.93379281 28.938751,5.37099436 L28.938751,7.74386574 C28.938751,8.18027633 29.2940282,8.53482287 29.7313383,8.53482287 L31.316513,8.53482287 C31.7546157,8.53482287 32.1091003,8.18027633 32.1091003,7.74386574 L32.1091003,5.37099436 C32.1091003,4.93379281 31.7546157,4.58003724 31.316513,4.58003724 L31.316513,4.58003724 Z" id="Fill-4"></path>
                    <path d="M10.5899577,29.5252431 L12.1751323,29.5252431 C12.613235,29.5252431 12.9677197,29.1706965 12.9677197,28.7342859 L12.9677197,26.3614146 C12.9677197,25.924213 12.613235,25.5704574 12.1751323,25.5704574 L10.5899577,25.5704574 C10.1526476,25.5704574 9.79737031,25.924213 9.79737031,26.3614146 L9.79737031,28.7342859 C9.79737031,29.1706965 10.1526476,29.5252431 10.5899577,29.5252431 L10.5899577,29.5252431 Z" id="Fill-5"></path>
                    <path d="M16.9306564,29.5252431 L18.5158311,29.5252431 C18.9539338,29.5252431 19.3084184,29.1706965 19.3084184,28.7342859 L19.3084184,26.3614146 C19.3084184,25.924213 18.9539338,25.5704574 18.5158311,25.5704574 L16.9306564,25.5704574 C16.4933463,25.5704574 16.1380691,25.924213 16.1380691,26.3614146 L16.1380691,28.7342859 C16.1380691,29.1706965 16.4933463,29.5252431 16.9306564,29.5252431 L16.9306564,29.5252431 Z" id="Fill-6"></path>
                    <path d="M23.2713552,29.5252431 L24.8565299,29.5252431 C25.2946325,29.5252431 25.6491172,29.1706965 25.6491172,28.7342859 L25.6491172,26.3614146 C25.6491172,25.924213 25.2946325,25.5704574 24.8565299,25.5704574 L23.2713552,25.5704574 C22.8340451,25.5704574 22.4787678,25.924213 22.4787678,26.3614146 L22.4787678,28.7342859 C22.4787678,29.1706965 22.8340451,29.5252431 23.2713552,29.5252431 L23.2713552,29.5252431 Z" id="Fill-7"></path>
                    <path d="M29.8504246,29.5252431 L31.4355993,29.5252431 C31.8729093,29.5252431 32.2281866,29.1706965 32.2281866,28.7342859 L32.2281866,26.3614146 C32.2281866,25.924213 31.8729093,25.5704574 31.4355993,25.5704574 L29.8504246,25.5704574 C29.4125201,25.5704574 29.0578372,25.924213 29.0578372,26.3614146 L29.0578372,28.7342859 C29.0578372,29.1706965 29.4125201,29.5252431 29.8504246,29.5252431 L29.8504246,29.5252431 Z" id="Fill-8"></path>
                    <path d="M10.5899577,22.4066289 L12.1751323,22.4066289 C12.613235,22.4066289 12.9677197,22.0520824 12.9677197,21.6156718 L12.9677197,19.2428004 C12.9677197,18.8055989 12.613235,18.4518433 12.1751323,18.4518433 L10.5899577,18.4518433 C10.1526476,18.4518433 9.79737031,18.8055989 9.79737031,19.2428004 L9.79737031,21.6156718 C9.79737031,22.0520824 10.1526476,22.4066289 10.5899577,22.4066289 L10.5899577,22.4066289 Z" id="Fill-9"></path>
                    <path d="M16.9306564,22.4066289 L18.5158311,22.4066289 C18.9539338,22.4066289 19.3084184,22.0520824 19.3084184,21.6156718 L19.3084184,19.2428004 C19.3084184,18.8055989 18.9539338,18.4518433 18.5158311,18.4518433 L16.9306564,18.4518433 C16.4933463,18.4518433 16.1380691,18.8055989 16.1380691,19.2428004 L16.1380691,21.6156718 C16.1380691,22.0520824 16.4933463,22.4066289 16.9306564,22.4066289 L16.9306564,22.4066289 Z" id="Fill-10"></path>
                    <path d="M23.2713552,22.4066289 L24.8565299,22.4066289 C25.2946325,22.4066289 25.6491172,22.0520824 25.6491172,21.6156718 L25.6491172,19.2428004 C25.6491172,18.8055989 25.2946325,18.4518433 24.8565299,18.4518433 L23.2713552,18.4518433 C22.8340451,18.4518433 22.4787678,18.8055989 22.4787678,19.2428004 L22.4787678,21.6156718 C22.4787678,22.0520824 22.8340451,22.4066289 23.2713552,22.4066289 L23.2713552,22.4066289 Z" id="Fill-11"></path>
                    <path d="M29.8504246,22.4066289 L31.4355993,22.4066289 C31.8729093,22.4066289 32.2281866,22.0520824 32.2281866,21.6156718 L32.2281866,19.2428004 C32.2281866,18.8055989 31.8729093,18.4518433 31.4355993,18.4518433 L29.8504246,18.4518433 C29.4125201,18.4518433 29.0578372,18.8055989 29.0578372,19.2428004 L29.0578372,21.6156718 C29.0578372,22.0520824 29.4125201,22.4066289 29.8504246,22.4066289 L29.8504246,22.4066289 Z" id="Fill-12"></path>
                    <path d="M36.1911233,29.5252431 L37.776298,29.5252431 C38.2136081,29.5252431 38.5688854,29.1706965 38.5688854,28.7342859 L38.5688854,26.3614146 C38.5688854,25.924213 38.2136081,25.5704574 37.776298,25.5704574 L36.1911233,25.5704574 C35.7532188,25.5704574 35.398536,25.924213 35.398536,26.3614146 L35.398536,28.7342859 C35.398536,29.1706965 35.7532188,29.5252431 36.1911233,29.5252431 L36.1911233,29.5252431 Z" id="Fill-13"></path>
                    <path d="M36.1911233,22.4066289 L37.776298,22.4066289 C38.2136081,22.4066289 38.5688854,22.0520824 38.5688854,21.6156718 L38.5688854,19.2428004 C38.5688854,18.8055989 38.2136081,18.4518433 37.776298,18.4518433 L36.1911233,18.4518433 C35.7532188,18.4518433 35.398536,18.8055989 35.398536,19.2428004 L35.398536,21.6156718 C35.398536,22.0520824 35.7532188,22.4066289 36.1911233,22.4066289 L36.1911233,22.4066289 Z" id="Fill-14"></path>
                </g>
            </g>
        </g>
    </g>
</svg>