<?xml version="1.0" encoding="UTF-8"?>
<svg width="96px" height="96px" viewBox="0 0 96 96" version="1.1" xmlns="http://www.w3.org/2000/svg" xmlns:xlink="http://www.w3.org/1999/xlink">
    <!-- Generator: Sketch 43.1 (39012) - http://www.bohemiancoding.com/sketch -->
    <title>pay_biller_mobile</title>
    <desc>Created with Sketch.</desc>
    <defs></defs>
    <g id="Page-1" stroke="none" stroke-width="1" fill="none" fill-rule="evenodd">
        <g id="remita_sprite_sheet" transform="translate(-16.000000, -271.000000)">
            <g id="pay_biller_mobile" transform="translate(17.000000, 272.000000)">
                <circle id="Oval-55" stroke="#888078" stroke-width="2" cx="47" cy="47" r="47"></circle>
                <g id="Page-1" transform="translate(33.096755, 18.649400)" fill-rule="nonzero" fill="#888078">
                    <path d="M20.978,8.905 L15.118,0.594 C15.116,0.591 15.113,0.59 15.11,0.587 C15.038,0.485 14.945,0.401 14.839,0.331 C14.807,0.31 14.771,0.298 14.736,0.28 C14.682,0.253 14.632,0.218 14.574,0.2 C14.549,0.192 14.523,0.195 14.498,0.19 C14.455,0.18 14.414,0.176 14.37,0.172 C14.287,0.164 14.206,0.165 14.124,0.177 C14.083,0.183 14.045,0.189 14.004,0.199 C13.906,0.225 13.816,0.266 13.729,0.32 C13.711,0.331 13.691,0.332 13.674,0.344 C13.67,0.347 13.668,0.352 13.663,0.355 C13.568,0.424 13.482,0.507 13.414,0.609 L7.557,9.287 C7.237,9.761 7.361,10.405 7.835,10.725 C8.308,11.045 8.95,10.921 9.271,10.447 L13.239,4.572 L13.239,23.019 C13.239,23.591 13.702,24.055 14.273,24.055 C14.844,24.055 15.308,23.591 15.308,23.019 L15.308,4.454 L19.289,10.1 C19.489,10.386 19.81,10.538 20.134,10.538 C20.341,10.538 20.549,10.476 20.731,10.348 C21.196,10.019 21.308,9.373 20.978,8.905 Z" id="Shape"></path>
                    <polyline id="Fill-9" points="18.2 12.809 28.155 12.809 28.155 59.901 0.392 59.901 0.392 12.809 10.293 12.809 10.293 14.88 2.46 14.88 2.46 57.83 26.087 57.83 26.087 14.88 18.2 14.88"></polyline>
                    <polygon id="Fill-11" points="18.2 20.481 27.121 20.481 27.121 18.41 18.2 18.41"></polygon>
                    <polygon id="Fill-13" points="1.426 20.481 10.293 20.481 10.293 18.41 1.426 18.41"></polygon>
                    <polygon id="Fill-14" points="1.426 49.39 27.121 49.39 27.121 47.319 1.426 47.319"></polygon>
                    <path d="M14.273,55.183 C13.452,55.183 12.784,54.514 12.784,53.691 C12.784,52.87 13.452,52.201 14.273,52.201 C15.094,52.201 15.762,52.87 15.762,53.691 C15.763,54.514 15.095,55.183 14.273,55.183" id="Fill-15"></path>
                    <path d="M18.773,40.227 L16.188,40.227 L12.015,31.203 L11.956,31.203 C12.039,32.797 12.081,33.933 12.081,34.614 L12.081,40.227 L10.264,40.227 L10.264,28.298 L12.829,28.298 L16.995,37.232 L17.041,37.232 C16.975,35.682 16.942,34.586 16.942,33.945 L16.942,28.299 L18.772,28.299 L18.772,40.227 L18.773,40.227 Z" id="Fill-16"></path>
                    <rect id="Rectangle-path" x="8.989" y="35.394" width="11.396" height="1.779"></rect>
                    <rect id="Rectangle-path" x="8.989" y="30.532" width="11.396" height="1.778"></rect>
                </g>
            </g>
        </g>
    </g>
</svg>