<?xml version="1.0" encoding="UTF-8"?>
<svg width="96px" height="96px" viewBox="0 0 96 96" version="1.1" xmlns="http://www.w3.org/2000/svg" xmlns:xlink="http://www.w3.org/1999/xlink">
    <!-- Generator: Sketch 43.1 (39012) - http://www.bohemiancoding.com/sketch -->
    <title>pay_electronic_invoice_mobile</title>
    <desc>Created with Sketch.</desc>
    <defs></defs>
    <g id="Page-1" stroke="none" stroke-width="1" fill="none" fill-rule="evenodd">
        <g id="remita_sprite_sheet" transform="translate(-273.000000, -268.000000)">
            <g id="pay_electronic_invoice_mobile" transform="translate(274.000000, 269.000000)">
                <path d="M46.997448,94 C21.0819895,94 0,72.9159276 0,47 C0,21.0840724 21.0819895,0 46.997448,0 C72.9146079,0 94,21.0840724 94,47 C94,72.9159276 72.9146079,94 46.997448,94" id="Fill-26" stroke="#888078" stroke-width="2"></path>
                <g id="Group-78" transform="translate(18.800000, 28.826667)">
                    <g id="notebook-computer" stroke="#888078" fill="#888078">
                        <path d="M6.06130461,32.7051872 L50.9435373,32.7051872 C51.8710201,32.7051872 52.6247877,31.9462322 52.6247877,31.0153358 L52.6247877,2.05679621 C52.6247877,1.12589982 51.8710201,0.366944765 50.9435373,0.366944765 L6.06130461,0.366944765 C5.13382181,0.366944765 4.37825093,1.12589982 4.37825093,2.05679621 L4.37825093,31.0153358 C4.37825093,31.9462322 5.13382181,32.7051872 6.06130461,32.7051872 L6.06130461,32.7051872 Z M5.82207055,2.05679621 C5.82207055,1.92286296 5.92786249,1.81426844 6.06130461,1.81426844 L50.9435373,1.81426844 C51.0751762,1.81426844 51.1833725,1.92286296 51.1833725,2.05679621 L51.1833725,31.0153358 C51.1833725,31.1474591 51.0751762,31.2560536 50.9435373,31.2560536 L6.06130461,31.2560536 C5.92786249,31.2560536 5.82207055,31.1474591 5.82207055,31.0153358 L5.82207055,2.05679621 Z M56.2433531,33.9968588 L56.2433531,35.3470507 C56.2433531,35.7078258 55.9542286,35.9974112 55.5971808,35.9974112 L1.40525684,35.9974112 C1.04820902,35.9974112 0.759685535,35.7054126 0.759685535,35.3470507 L0.759685535,33.9968588 L23.5470301,33.9968588 C23.6600351,34.3739231 24.0026568,34.6496325 24.415606,34.6496325 L32.5892359,34.6496325 C33.0003819,34.6496325 33.3454079,34.3739231 33.4578119,33.9968588 L56.2433531,33.9968588 Z" id="Fill-1"></path>
                    </g>
                    <g id="scan-icon" transform="translate(17.412767, 6.158929)">
                        <path d="M4.87866893,10.7064633 L15.6360156,10.7064633 L4.87866893,10.7064633 Z" id="Fill-1" fill="#CDCDCC"></path>
                        <path d="M4.87895579,10.7064633 L15.6363025,10.7064633" id="Stroke-2" stroke="#888078" stroke-width="1.3" stroke-linecap="round" stroke-linejoin="round"></path>
                        <path d="M19.2755694,14.0423454 C19.275674,14.0381382 19.2757265,14.0339181 19.2757265,14.0296857 L19.2757265,1.49068637 C19.2757265,1.21454399 19.0518689,0.990686365 18.7757265,0.990686365 L18.2757265,1.49068637 L18.2757265,14.0296857 C18.2757265,14.0379741 18.2759282,14.0462153 18.2763269,14.0544048 L18.2757265,14.0550052 L18.2757265,20.3554181 C18.2757265,20.6315605 18.4995842,20.8554181 18.7757265,20.8554181 C19.0518689,20.8554181 19.2757265,20.6315605 19.2757265,20.3554181 L19.2757265,14.0550052 C19.2757265,14.0507728 19.275674,14.0465527 19.2755694,14.0423454 Z" id="Combined-Shape" stroke="#888078" stroke-linecap="round" stroke-linejoin="round"></path>
                        <path d="M1.97794715,14.0423454 C1.97805171,14.0381382 1.9781043,14.0339181 1.9781043,14.0296857 L1.9781043,1.49068637 C1.9781043,1.21454399 1.75424667,0.990686365 1.4781043,0.990686365 L0.978104298,1.49068637 L0.978104298,14.0296857 C0.978104298,14.0379741 0.978305967,14.0462153 0.978704667,14.0544048 L0.978104298,14.0550052 L0.978104298,20.3554181 C0.978104298,20.6315605 1.20196192,20.8554181 1.4781043,20.8554181 C1.75424667,20.8554181 1.9781043,20.6315605 1.9781043,20.3554181 L1.9781043,14.0550052 C1.9781043,14.0507728 1.97805171,14.0465527 1.97794715,14.0423454 Z" id="Combined-Shape" stroke="#888078" stroke-linecap="round" stroke-linejoin="round"></path>
                        <path d="M1.47848678,20.3549274 L1.47848678,14.0545145 L1.47848678,20.3549274 Z" id="Fill-17" fill="#CDCDCC"></path>
                        <path d="M5,1.49068637 L5,7.78913655" id="Stroke-5" stroke="#888078" stroke-width="1.7" stroke-linecap="round" stroke-linejoin="round"></path>
                        <path d="M5,14.0550052 L5,20.3554181" id="Stroke-20" stroke="#888078" stroke-width="1.7" stroke-linecap="round" stroke-linejoin="round"></path>
                        <path d="M8.33333333,1.49068637 L8.33333333,7.78913655" id="Stroke-7" stroke="#888078" stroke-width="1.7" stroke-linecap="round" stroke-linejoin="round"></path>
                        <path d="M8.33333333,14.0550052 L8.33333333,20.3554181" id="Stroke-22" stroke="#888078" stroke-width="1.7" stroke-linecap="round" stroke-linejoin="round"></path>
                        <path d="M11.6666667,1.49068637 L11.6666667,7.78913655" id="Stroke-9" stroke="#888078" stroke-width="1.7" stroke-linecap="round" stroke-linejoin="round"></path>
                        <path d="M11.6666667,14.0550052 L11.6666667,20.3554181" id="Stroke-24" stroke="#888078" stroke-width="1.7" stroke-linecap="round" stroke-linejoin="round"></path>
                        <path d="M15,1.49068637 L15,7.78913655" id="Stroke-11" stroke="#908982" stroke-width="1.7" stroke-linecap="round" stroke-linejoin="round"></path>
                        <path d="M15,14.0550052 L15,20.3554181" id="Stroke-28" stroke="#908982" stroke-width="1.7" stroke-linecap="round" stroke-linejoin="round"></path>
                    </g>
                </g>
            </g>
        </g>
    </g>
</svg>