<?xml version="1.0" encoding="UTF-8"?>
<svg width="97px" height="96px" viewBox="0 0 97 96" version="1.1" xmlns="http://www.w3.org/2000/svg" xmlns:xlink="http://www.w3.org/1999/xlink">
    <!-- Generator: Sketch 43.1 (39012) - http://www.bohemiancoding.com/sketch -->
    <title>recurring_payments_mobile</title>
    <desc>Created with Sketch.</desc>
    <defs></defs>
    <g id="Page-1" stroke="none" stroke-width="1" fill="none" fill-rule="evenodd">
        <g id="remita_sprite_sheet" transform="translate(-400.000000, -270.000000)">
            <g id="recurring_payments_mobile" transform="translate(401.950000, 271.000000)">
                <path d="M46.9973271,7.10542736e-15 C21.0841121,7.10542736e-15 1.03028697e-12,21.0845118 1.03028697e-12,47 C1.03028697e-12,72.9154882 21.0841121,94 46.9973271,94 C72.9158879,94 94,72.9154882 94,47 C94,21.0845118 72.9158879,7.10542736e-15 46.9973271,7.10542736e-15" id="Fill-3" stroke="#888078" stroke-width="2"></path>
                <path d="M64.9008571,42.2310982 C65.7098279,42.2310982 66.3690591,41.5714329 66.3690591,40.756275 C66.3690591,39.9448865 65.7098279,39.321974 64.9008571,39.321974 L53.1703095,39.321974 C52.3603969,39.321974 51.700224,39.9448865 51.700224,40.756275 C51.700224,41.5714329 52.3603969,42.2310982 53.1703095,42.2310982 L64.9008571,42.2310982 Z M64.9008571,51.0470547 C65.7098279,51.0470547 66.3690591,50.3873893 66.3690591,49.5778857 C66.3690591,48.760843 65.7098279,48.1087167 64.9008571,48.1087167 L44.3686318,48.1303914 C43.5606027,48.1303914 42.9004298,48.760843 42.9004298,49.5778857 C42.9004298,50.3873893 43.5606027,51.0470547 44.3686318,51.0470547 L64.9008571,51.0470547 Z M64.9008571,59.8611264 C65.7098279,59.8611264 66.3690591,59.201461 66.3690591,58.3919574 C66.3690591,57.5833961 65.7098279,56.9369241 64.9008571,56.9369241 L44.3686318,56.9369241 C43.5606027,56.9369241 42.9004298,57.5833961 42.9004298,58.3919574 C42.9004298,59.201461 43.5606027,59.8611264 44.3686318,59.8611264 L64.9008571,59.8611264 Z M46.8388651,41.8173938 C47.4189885,41.2350035 47.4189885,40.296394 46.8388651,39.7234275 L36.6556272,27.9974043 C36.3448468,27.6911311 35.9455411,27.5554285 35.5415265,27.5752185 C35.1450461,27.5554285 34.735381,27.6911311 34.4283676,27.9974043 L24.2413627,39.7234275 C23.6706569,40.296394 23.6706569,41.2350035 24.2413627,41.8173938 C24.8167773,42.3884755 25.7575944,42.3884755 26.3273584,41.8173938 L34.094985,32.8657348 L34.094985,68.6761405 L37.0342142,68.6761405 L37.0342142,32.9147385 L44.7613452,41.8173938 C45.3329928,42.3884755 46.265334,42.3884755 46.8388651,41.8173938 L46.8388651,41.8173938 Z M44.3686318,65.7368601 C43.5606027,65.7368601 42.9004298,66.3965254 42.9004298,67.2060291 C42.9004298,68.0164751 43.5606027,68.6761405 44.3686318,68.6761405 L64.9008571,68.6761405 C65.7098279,68.6761405 66.3690591,68.0164751 66.3690591,67.2060291 C66.3690591,66.3965254 65.7098279,65.7368601 64.9008571,65.7368601 L44.3686318,65.7368601 Z M64.9008571,33.4094875 C65.7098279,33.4094875 66.3690591,32.7573612 66.3690591,31.9403185 C66.3690591,31.1317572 65.7098279,30.5144989 64.9008571,30.5144989 L47.2965599,30.4711495 C46.4857055,30.4711495 45.835892,31.1317572 45.835892,31.9403185 C45.835892,32.7573612 46.4857055,33.4094875 47.2965599,33.4094875 L64.9008571,33.4094875 Z" id="Fill-1" fill="#888078"></path>
            </g>
        </g>
    </g>
</svg>