<?xml version="1.0" encoding="UTF-8"?>
<svg width="96px" height="95px" viewBox="0 0 96 95" version="1.1" xmlns="http://www.w3.org/2000/svg" xmlns:xlink="http://www.w3.org/1999/xlink">
    <!-- Generator: Sketch 43.1 (39012) - http://www.bohemiancoding.com/sketch -->
    <title>resend_receipt</title>
    <desc>Created with Sketch.</desc>
    <defs></defs>
    <g id="Page-1" stroke="none" stroke-width="1" fill="none" fill-rule="evenodd">
        <g id="remita_sprite_sheet" transform="translate(-145.000000, -269.000000)">
            <g id="resend_receipt" transform="translate(145.000000, 269.000000)">
                <g id="Group-3" transform="translate(0.776622, 0.072897)" fill-rule="nonzero" fill="#888078">
                    <g id="Fill-1">
                        <path d="M47.379,94.763 C21.254,94.763 0,73.508 0,47.382 C0,21.256 21.254,0 47.379,0 C73.506,0 94.762,21.255 94.762,47.382 C94.762,73.509 73.507,94.763 47.379,94.763 Z M47.379,2 C22.357,2 2,22.358 2,47.382 C2,72.405 22.357,92.763 47.379,92.763 C72.404,92.763 92.762,72.405 92.762,47.382 C92.762,22.358 72.404,2 47.379,2 Z" id="Shape"></path>
                    </g>
                </g>
                <path d="M36.362,46.505 L47.341,46.505 C47.917,46.505 48.39,46.038 48.39,45.465 C48.39,44.893 47.917,44.426 47.341,44.426 L36.362,44.426 C35.785,44.426 35.313,44.893 35.313,45.465 C35.313,46.038 35.777,46.505 36.362,46.505" id="Fill-6" fill="#888078" fill-rule="nonzero"></path>
                <path d="M36.362,50.118 L41.314,50.118 C41.892,50.118 42.362,49.65 42.362,49.079 C42.362,48.507 41.892,48.039 41.314,48.039 L36.362,48.039 C35.785,48.039 35.313,48.507 35.313,49.079 C35.313,49.65 35.777,50.118 36.362,50.118" id="Fill-8" fill="#888078" fill-rule="nonzero"></path>
                <path d="M52.826,46.505 L54.417,46.505 C54.992,46.505 55.466,46.038 55.466,45.465 C55.466,44.893 54.992,44.426 54.417,44.426 L52.826,44.426 C52.25,44.426 51.777,44.893 51.777,45.465 C51.777,46.038 52.242,46.505 52.826,46.505" id="Fill-10" fill="#888078" fill-rule="nonzero"></path>
                <path d="M36.362,38.161 L47.341,38.161 C47.917,38.161 48.39,37.693 48.39,37.121 C48.39,36.549 47.917,36.081 47.341,36.081 L36.362,36.081 C35.785,36.081 35.313,36.549 35.313,37.121 C35.313,37.693 35.777,38.161 36.362,38.161" id="Fill-12" fill="#888078" fill-rule="nonzero"></path>
                <path d="M36.362,41.766 L41.314,41.766 C41.892,41.766 42.362,41.297 42.362,40.725 C42.362,40.153 41.892,39.686 41.314,39.686 L36.362,39.686 C35.785,39.686 35.313,40.153 35.313,40.725 C35.313,41.297 35.777,41.766 36.362,41.766" id="Fill-14" fill="#888078" fill-rule="nonzero"></path>
                <path d="M52.826,38.161 L54.417,38.161 C54.992,38.161 55.466,37.693 55.466,37.121 C55.466,36.549 54.992,36.081 54.417,36.081 L52.826,36.081 C52.25,36.081 51.777,36.549 51.777,37.121 C51.777,37.693 52.242,38.161 52.826,38.161" id="Fill-16" fill="#888078" fill-rule="nonzero"></path>
                <path d="M36.362,54.953 L47.341,54.953 C47.917,54.953 48.39,54.485 48.39,53.914 C48.39,53.341 47.917,52.873 47.341,52.873 L36.362,52.873 C35.785,52.873 35.313,53.341 35.313,53.914 C35.313,54.485 35.777,54.953 36.362,54.953" id="Fill-18" fill="#888078" fill-rule="nonzero"></path>
                <path d="M36.362,58.557 L41.314,58.557 C41.892,58.557 42.362,58.089 42.362,57.519 C42.362,56.946 41.892,56.479 41.314,56.479 L36.362,56.479 C35.785,56.479 35.313,56.946 35.313,57.519 C35.313,58.089 35.777,58.557 36.362,58.557" id="Fill-20" fill="#888078" fill-rule="nonzero"></path>
                <g id="Fill-26" transform="translate(25.000000, 26.000000)">
                    <g id="Group">
                        <polygon id="Shape" points="5.271 3.217 5.271 38.576 11.363 36.068 20.625 40.249 24.75 38.496 24.75 24.137 35.98 24.137 35.98 3.217"></polygon>
                        <polygon id="Shape" fill="#FFFFFF" fill-rule="nonzero" points="38.078 42.32 38.078 41.893 37.239 41.893"></polygon>
                        <path d="M20.625,40.249 L11.363,36.068 L5.272,38.576 L5.272,3.217 L35.98,3.217 L35.98,24.137 L38.078,24.137 L38.078,3.217 L39.2,3.217 C39.89,3.217 40.45,2.657 40.45,1.967 C40.45,1.277 39.89,0.717 39.2,0.717 L2.05,0.717 C1.36,0.717 0.8,1.277 0.8,1.967 C0.8,2.657 1.36,3.217 2.05,3.217 L3.171,3.217 L3.171,42.32 L11.361,38.438 L20.625,42.32 L24.75,40.693 L24.75,38.496 L20.625,40.249 Z" id="Shape" fill="#888078" fill-rule="nonzero"></path>
                    </g>
                    <path d="M45.837,42.893 L23.75,42.893 L23.75,23.137 L45.837,23.137 L45.837,42.893 Z M25.75,40.893 L43.837,40.893 L43.837,25.137 L25.75,25.137 L25.75,40.893 Z" id="Shape" fill="#888078" fill-rule="nonzero"></path>
                </g>
                <path d="M59.698,64.207 C56.75,64.207 54.349,61.827 54.349,58.9 C54.349,55.977 56.749,53.597 59.698,53.597 C62.647,53.597 65.047,55.977 65.047,58.9 C65.047,59.069 64.909,59.205 64.74,59.205 C64.57,59.205 64.433,59.069 64.433,58.9 C64.433,56.31 62.309,54.203 59.698,54.203 C57.086,54.203 54.961,56.31 54.961,58.9 C54.961,61.493 57.086,63.599 59.698,63.599 C61.369,63.599 62.933,62.71 63.782,61.281 C63.867,61.138 64.056,61.089 64.2,61.175 C64.347,61.26 64.394,61.446 64.31,61.59 C63.352,63.203 61.584,64.207 59.698,64.207" id="Fill-29" stroke="#888078" fill="#888078" fill-rule="nonzero"></path>
                <path d="M64.703,59.728 C64.615,59.708 64.536,59.67 64.467,59.608 L62.588,58.411 C62.381,58.222 62.37,57.906 62.561,57.702 C62.75,57.497 63.069,57.485 63.278,57.675 L64.805,58.55 L66.049,57.393 C66.254,57.205 66.574,57.216 66.766,57.419 C66.954,57.623 66.944,57.94 66.741,58.13 L65.155,59.605 C65.028,59.722 64.856,59.761 64.703,59.728 L64.703,59.728 Z" id="Stroke-32" stroke="#888078" stroke-width="0.5" fill="#888078" fill-rule="nonzero"></path>
            </g>
        </g>
    </g>
</svg>