<?xml version="1.0" encoding="UTF-8"?>
<svg width="77px" height="77px" viewBox="0 0 77 77" version="1.1" xmlns="http://www.w3.org/2000/svg" xmlns:xlink="http://www.w3.org/1999/xlink">
    <!-- Generator: Sketch 43.1 (39012) - http://www.bohemiancoding.com/sketch -->
    <title>view_balances</title>
    <desc>Created with Sketch.</desc>
    <defs></defs>
    <g id="Page-1" stroke="none" stroke-width="1" fill="none" fill-rule="evenodd">
        <g id="Remita_Web" transform="translate(-245.000000, -1098.000000)">
            <g id="Group-19" transform="translate(0.000000, 781.000000)">
                <g id="Group-28" transform="translate(246.000000, 316.000000)">
                    <g id="view_balances" transform="translate(0.000000, 2.000000)">
                        <g id="Group-47">
                            <circle id="Oval" stroke="#F16521" stroke-width="2" cx="37.5" cy="37.5" r="37.5"></circle>
                            <g id="laptob" transform="translate(12.000000, 22.000000)" fill-rule="nonzero" fill="#F16521">
                                <path d="M5.2,27.4964946 L46.8,27.4964946 C47.756817,27.4964946 48.5333333,26.7248641 48.5333333,25.7771739 L48.5333333,1.71847826 C48.5333333,0.769019022 47.756732,0 46.8,0 L5.2,0 C4.24233333,0 3.46666667,0.769019022 3.46666667,1.71932065 L3.46666667,25.7780163 C3.46666667,26.7248641 4.24233333,27.4964946 5.2,27.4964946 Z M5.2,2.57771739 C5.2,2.10252446 5.58821569,1.71847826 6.06666667,1.71847826 L45.9333333,1.71847826 C46.4117843,1.71847826 46.8,2.1026087 46.8,2.57771739 L46.8,24.918019 C46.8,25.3913587 46.4117843,25.7780163 45.9333333,25.7780163 L6.06666667,25.7780163 C5.58830065,25.7780163 5.2,25.3913587 5.2,24.918019 L5.2,2.57771739 Z M51.1333333,29.2158152 L0.866666667,29.2158152 C0.388300654,29.2158152 0,29.5998614 0,30.0733696 C0,30.5485625 0.388300654,30.9335353 0.866666667,30.9335353 L51.1333333,30.9335353 C51.6117843,30.9335353 52,30.5485625 52,30.0733696 C52,29.5997772 51.6117843,29.2158152 51.1333333,29.2158152 Z" id="Shape"></path>
                                <g id="Group-46" transform="translate(9.000000, 9.000000)">
                                    <path d="M8.30435294,3.48636986 L8.30435294,5.88336986 L9.36811765,5.88336986 L9.36811765,7.26568493 L8.30435294,7.26568493 L8.30435294,9.27187671 L8.30370588,9.27187671 L6.28164706,9.27187671 L5.34848584,7.26568493 L3.07094118,7.26568493 L3.07094118,9.27123288 L1.65,9.27123288 L1.65,7.26568493 L0,7.26568493 L0,5.88336986 L1.65,5.88336986 L1.65,3.48636986 L0,3.48636986 L0,2.10405479 L1.65,2.10405479 L1.65,0 L3.65588235,0 L4.64308233,2.10405479 L6.87241176,2.10405479 L6.87241176,0 L8.30435294,0 L8.30435294,2.10405479 L9.36811765,2.10405479 L9.36811765,3.48636986 L8.30435294,3.48636986 Z M6.87241176,3.48636986 L5.29164976,3.48636986 L6.41629649,5.88336986 L6.90738025,5.88336986 C6.88393482,5.22412454 6.87241176,4.72599444 6.87241176,4.38838356 L6.87241176,3.48636986 Z M3.59057301,3.48636986 L3.03223009,3.48636986 C3.05809147,4.10145333 3.07094118,4.57547723 3.07094118,4.90860274 L3.07094118,5.88336986 L4.70551499,5.88336986 L3.59057301,3.48636986 Z" id="Combined-Shape"></path>
                                    <path d="M20.3043529,3.48636986 L20.3043529,5.88336986 L21.3681176,5.88336986 L21.3681176,7.26568493 L20.3043529,7.26568493 L20.3043529,9.27187671 L20.3037059,9.27187671 L18.2816471,9.27187671 L17.3484858,7.26568493 L15.0709412,7.26568493 L15.0709412,9.27123288 L13.65,9.27123288 L13.65,7.26568493 L12,7.26568493 L12,5.88336986 L13.65,5.88336986 L13.65,3.48636986 L12,3.48636986 L12,2.10405479 L13.65,2.10405479 L13.65,0 L15.6558824,0 L16.6430823,2.10405479 L18.8724118,2.10405479 L18.8724118,0 L20.3043529,0 L20.3043529,2.10405479 L21.3681176,2.10405479 L21.3681176,3.48636986 L20.3043529,3.48636986 Z M18.8724118,3.48636986 L17.2916498,3.48636986 L18.4162965,5.88336986 L18.9073803,5.88336986 C18.8839348,5.22412454 18.8724118,4.72599444 18.8724118,4.38838356 L18.8724118,3.48636986 Z M15.590573,3.48636986 L15.0322301,3.48636986 C15.0580915,4.10145333 15.0709412,4.57547723 15.0709412,4.90860274 L15.0709412,5.88336986 L16.705515,5.88336986 L15.590573,3.48636986 Z" id="Combined-Shape"></path>
                                    <path d="M32.3043529,3.48636986 L32.3043529,5.88336986 L33.3681176,5.88336986 L33.3681176,7.26568493 L32.3043529,7.26568493 L32.3043529,9.27187671 L32.3037059,9.27187671 L30.2816471,9.27187671 L29.3484858,7.26568493 L27.0709412,7.26568493 L27.0709412,9.27123288 L25.65,9.27123288 L25.65,7.26568493 L24,7.26568493 L24,5.88336986 L25.65,5.88336986 L25.65,3.48636986 L24,3.48636986 L24,2.10405479 L25.65,2.10405479 L25.65,0 L27.6558824,0 L28.6430823,2.10405479 L30.8724118,2.10405479 L30.8724118,0 L32.3043529,0 L32.3043529,2.10405479 L33.3681176,2.10405479 L33.3681176,3.48636986 L32.3043529,3.48636986 Z M30.8724118,3.48636986 L29.2916498,3.48636986 L30.4162965,5.88336986 L30.9073803,5.88336986 C30.8839348,5.22412454 30.8724118,4.72599444 30.8724118,4.38838356 L30.8724118,3.48636986 Z M27.590573,3.48636986 L27.0322301,3.48636986 C27.0580915,4.10145333 27.0709412,4.57547723 27.0709412,4.90860274 L27.0709412,5.88336986 L28.705515,5.88336986 L27.590573,3.48636986 Z" id="Combined-Shape"></path>
                                </g>
                            </g>
                        </g>
                    </g>
                </g>
            </g>
        </g>
    </g>
</svg>