<?xml version="1.0" encoding="UTF-8"?>
<svg width="77px" height="77px" viewBox="0 0 77 77" version="1.1" xmlns="http://www.w3.org/2000/svg" xmlns:xlink="http://www.w3.org/1999/xlink">
    <!-- Generator: Sketch 43.1 (39012) - http://www.bohemiancoding.com/sketch -->
    <title>work_life_balance</title>
    <desc>Created with Sketch.</desc>
    <defs></defs>
    <g id="Page-1" stroke="none" stroke-width="1" fill="none" fill-rule="evenodd">
        <g id="Remita_Web" transform="translate(-245.000000, -1408.000000)" stroke="#F16521">
            <g id="work_life_balance" transform="translate(246.000000, 1409.000000)">
                <g id="Group-39">
                    <circle id="Oval" stroke-width="2" cx="37.5" cy="37.5" r="37.5"></circle>
                    <g id="Group-40" transform="translate(17.000000, 18.000000)" stroke-width="0.6" fill="#F16521" fill-rule="nonzero">
                        <g id="weight-balance">
                            <path d="M30.4017048,37.8627432 L10.5167048,37.8627432 C10.2321772,37.8627432 10.0016295,37.6303825 10.0016295,37.3436175 C10.0016295,36.0713443 11.0175641,35.0474208 12.2663129,35.0474208 C15.9326194,35.0474208 18.9155239,32.0410601 18.9155239,28.3459235 L18.9155239,4.7896612 L7.94256414,4.7896612 L14.2266898,18.4954098 C14.2654234,18.5797158 14.2802576,18.6712896 14.2720164,18.7607869 C14.2728405,18.7869508 14.2736646,18.8133224 14.2736646,18.8399016 C14.2736646,22.6332568 11.0721621,25.7193552 7.13678022,25.7193552 C3.20139831,25.7193552 0.000101825046,22.6334645 0.000101825046,18.8401093 C0.000101825046,18.8120765 0.000925945649,18.7840437 0.00175006625,18.7562186 C-0.00546098902,18.6681749 0.00957921198,18.5784699 0.0474887597,18.4956175 L6.33161439,4.78986885 L5.86371992,4.78986885 C5.57919228,4.78986885 5.34864454,4.5575082 5.34864454,4.27074317 C5.34864454,3.98397814 5.57919228,3.75161749 5.86371992,3.75161749 L18.9155239,3.75161749 L18.9155239,1.55571585 C18.9155239,0.697912568 19.6079913,0 20.4591018,0 C21.3102124,0 22.0026797,0.697912568 22.0026797,1.55571585 L22.0026797,3.75161749 L35.0544837,3.75161749 C35.3390114,3.75161749 35.5695591,3.98397814 35.5695591,4.27074317 C35.5695591,4.5575082 35.3390114,4.78986885 35.0544837,4.78986885 L34.5865893,4.78986885 L40.8709209,18.4956175 C40.9096546,18.5801311 40.9244888,18.6719126 40.9162476,18.7616175 C40.9170717,18.7877814 40.9178958,18.8139454 40.9178958,18.8401093 C40.9178958,22.6334645 37.7163933,25.7195628 33.7810114,25.7195628 C29.8456295,25.7195628 26.644127,22.6334645 26.644127,18.8401093 C26.644127,18.8118689 26.6449511,18.7838361 26.6459812,18.7558033 C26.6387702,18.6679672 26.6538104,18.5782623 26.6917199,18.4956175 L32.9758455,4.78986885 L22.0028857,4.78986885 L22.0028857,28.3459235 C22.0028857,32.0410601 24.9857903,35.0474208 28.6520968,35.0474208 C29.9010516,35.0474208 30.9167802,36.0713443 30.9167802,37.3299126 C30.9167802,37.6166776 30.6862325,37.8627432 30.4017048,37.8627432 Z M11.1382978,36.8244918 L29.7778455,36.8244918 C29.5839712,36.3871803 29.152338,36.0856721 28.6520968,36.0856721 C24.4175591,36.0856721 20.972735,32.6135519 20.972735,28.3459235 L20.972735,4.7896612 L19.9458807,4.7896612 L19.9458807,28.3459235 C19.9458807,32.6137596 16.5008506,36.0856721 12.2665189,36.0856721 C11.7640114,36.0858798 11.330936,36.3896721 11.1382978,36.8244918 Z M27.6878757,19.2325683 C27.8994687,22.2711148 30.5514888,24.6815191 33.7808053,24.6815191 C37.0101219,24.6815191 39.662142,22.2713224 39.873735,19.2325683 L27.6878757,19.2325683 Z M1.04385057,19.2325683 C1.25564956,22.2711148 3.90766966,24.6815191 7.13698625,24.6815191 C10.3663028,24.6815191 13.0181169,22.2713224 13.2301219,19.2325683 L1.04385057,19.2325683 Z M27.9645742,18.1943169 L39.5978606,18.1943169 L33.7812174,5.50813115 L27.9645742,18.1943169 Z M1.32054906,18.1943169 L12.9538355,18.1943169 L7.13719228,5.50813115 L1.32054906,18.1943169 Z M19.9456747,3.75140984 L20.972529,3.75140984 L20.972529,1.55571585 C20.972529,1.27040437 20.7421873,1.03825137 20.4591018,1.03825137 C20.1760164,1.03825137 19.9456747,1.27040437 19.9456747,1.55571585 L19.9456747,3.75140984 L19.9456747,3.75140984 Z" id="Shape"></path>
                        </g>
                    </g>
                </g>
                <circle id="Oval-2" stroke-width="1.4" fill="#FFFFFF" cx="37.5" cy="18.5" r="3.5"></circle>
            </g>
        </g>
    </g>
</svg>